<svg id="artwork" xmlns="http://www.w3.org/2000/svg" viewBox="0 0 127.64 50"><defs><style>.cls-1{fill:#010d04}.cls-2{fill:#ec1844}.cls-3{fill:#6c0b1e}.cls-4{fill:#a51732}.cls-5{fill:#6a7068}.cls-6{fill:#aaaca8}.cls-7{fill:#fff}</style></defs><title>tintri-logo-full</title><g id="signin"><path class="cls-1" d="M75.81 17.94h-7.07v17.23a.58.58 0 0 1-.58.58h-2.57a.58.58 0 0 1-.59-.58V17.94h-7.05a.58.58 0 0 1-.58-.58V15a.58.58 0 0 1 .58-.58h17.86a.58.58 0 0 1 .58.58v2.34a.58.58 0 0 1-.58.58"/><path class="cls-1" d="M75.81 20.81h-2.56a.57.57 0 0 0-.58.58v13.77a.58.58 0 0 0 .58.58h2.57a.58.58 0 0 0 .58-.58V21.39a.58.58 0 0 0-.58-.58M127.06 20.81h-2.57a.58.58 0 0 0-.58.58v13.77a.58.58 0 0 0 .58.58h2.57a.58.58 0 0 0 .58-.58V21.39a.58.58 0 0 0-.58-.58M88.62 20.55a33.32 33.32 0 0 0-7.95.92.58.58 0 0 0-.46.56v13.14a.58.58 0 0 0 .58.58h2.56a.58.58 0 0 0 .58-.58V24.4a22.72 22.72 0 0 1 4.19-.4c2.66 0 4.19 1.66 4.19 4.55v6.63a.58.58 0 0 0 .58.58h2.56a.58.58 0 0 0 .55-.59V28c0-4.56-2.84-7.35-7.4-7.4M121.75 20.55a54.43 54.43 0 0 0-9.49.88.58.58 0 0 0-.48.57v10.37H107c-1.77 0-2.87-.7-2.87-3.75v-4.3h5.11a.58.58 0 0 0 .58-.58v-2.35a.58.58 0 0 0-.58-.58h-5.11v-4.69a.58.58 0 0 0-.58-.58H101a.58.58 0 0 0-.58.58v4.68h-3.14a.58.58 0 0 0-.58.58v2.35a.58.58 0 0 0 .58.58h3.14v4.52c0 4.52 1.92 6.78 5.88 6.91h8.7a.59.59 0 0 0 .51-.58V25a53.44 53.44 0 0 1 6.24-.3.58.58 0 0 0 .58-.58v-3a.58.58 0 0 0-.58-.58"/><path class="cls-2" d="M21.61 50l7.18-4.05-7.18-4.06V50M36.74 26.5l6.49-3.66V12.48l-6.49 3.7V26.5M43.23 29.7l-15.54 8.77 7.18 4.04 8.36-4.72V29.7M21.61 35.03l9.16-5.16V19.59l-9.16 5.23v10.21"/><path class="cls-3" d="M21.61 50v-8.11l7.18 4.06L21.61 50M36.74 26.5V16.18l6.49-3.7v10.36l-6.49 3.66M34.87 42.51l-7.18-4.04 15.54-8.77v8.09l-8.36 4.72M21.61 35.03V24.82l9.16-5.23v10.28l-9.16 5.16"/><path class="cls-2" d="M12.34 19.52V29.8l9.27 5.23V24.82l-9.27-5.3M0 12.48v7.16l6.3-3.56-6.3-3.6M0 26.51v11.28l6.37 3.6V22.9L0 26.51M12.34 36.66v8.1L21.61 50v-8.11l-9.27-5.23"/><path class="cls-4" d="M21.61 35.03l-9.27-5.23V19.52l9.27 5.3v10.21M0 19.64v-7.16l6.3 3.6L0 19.64M6.37 41.39L0 37.79V26.51l6.37-3.6v18.48M21.61 50l-9.27-5.24v-8.1l9.27 5.23V50"/><path class="cls-2" d="M12.34 19.52l9.27 5.3 9.16-5.23-9.23-5.27-9.2 5.2M43.23 12.48l-6.49-3.74v7.44l6.49-3.7M30.77 5.29L21.61 0l-6.52 3.77 15.68 8.94V5.29M15.5 10.88L9.1 7.23 0 12.48l6.3 3.6 9.2-5.2"/><path class="cls-5" d="M43.23 29.7v-6.86l-6.49 3.66V16.18l-5.97 3.41v10.28l-9.16 5.16v6.86l7.18 4.06 6.08-3.44-7.18-4.04 15.54-8.77"/><path class="cls-6" d="M21.61 41.89v-6.86l-9.27-5.23V19.53L6.3 16.08 0 19.64v6.87l6.37-3.61v18.49l5.97 3.37v-8.1l9.27 5.23"/><path class="cls-7" d="M6.3 16.08l6.04 3.45 9.2-5.21 9.23 5.27 5.97-3.41V8.74l-5.97-3.45v7.42L15.09 3.77 9.1 7.23l6.4 3.65-9.2 5.2"/></g></svg>